<svg id="Capa_1" enable-background="new 0 0 511.895 511.895" viewBox="0 0 511.895 511.895" xmlns="http://www.w3.org/2000/svg"><g><g><g><path d="m52.693 151.284h138.855c4.143 0 7.5-3.358 7.5-7.5s-3.357-7.5-7.5-7.5h-138.855c-4.143 0-7.5 3.358-7.5 7.5s3.358 7.5 7.5 7.5z"/><path d="m52.693 189.531h104.872c4.143 0 7.5-3.358 7.5-7.5s-3.357-7.5-7.5-7.5h-104.872c-4.143 0-7.5 3.358-7.5 7.5s3.358 7.5 7.5 7.5z"/><path d="m52.693 250.643h102.226c4.143 0 7.5-3.358 7.5-7.5s-3.357-7.5-7.5-7.5h-102.226c-4.143 0-7.5 3.358-7.5 7.5s3.358 7.5 7.5 7.5z"/><path d="m52.693 288.89h102.226c4.143 0 7.5-3.358 7.5-7.5s-3.357-7.5-7.5-7.5h-102.226c-4.143 0-7.5 3.358-7.5 7.5s3.358 7.5 7.5 7.5z"/><path d="m52.693 327.138h113.289c4.143 0 7.5-3.358 7.5-7.5s-3.357-7.5-7.5-7.5h-113.289c-4.143 0-7.5 3.358-7.5 7.5s3.358 7.5 7.5 7.5z"/><path d="m52.693 365.385h128.543c4.143 0 7.5-3.358 7.5-7.5s-3.357-7.5-7.5-7.5h-128.543c-4.143 0-7.5 3.358-7.5 7.5s3.358 7.5 7.5 7.5z"/><path d="m52.693 403.632h225.95c4.143 0 7.5-3.358 7.5-7.5s-3.357-7.5-7.5-7.5h-225.95c-4.143 0-7.5 3.358-7.5 7.5s3.358 7.5 7.5 7.5z"/><path d="m52.693 441.88h225.95c4.143 0 7.5-3.358 7.5-7.5s-3.357-7.5-7.5-7.5h-225.95c-4.143 0-7.5 3.358-7.5 7.5s3.358 7.5 7.5 7.5z"/><path d="m511.547 398.907c-1.275-8.88-5.934-16.732-13.115-22.11l-118.157-88.472c4.763-12.029 7.382-25.132 7.382-38.835 0-27.691-10.697-52.926-28.169-71.805v-81.796c0-13.837-11.258-25.095-25.095-25.095h-71.581v-9.052c0-7.42-6.037-13.458-13.458-13.458h-25.134c-.387-24.194-20.19-43.758-44.476-43.758s-44.089 19.563-44.476 43.759h-25.135c-7.421 0-13.458 6.037-13.458 13.458v9.052h-71.58c-13.837 0-25.095 11.257-25.095 25.094v312.058c0 4.142 3.357 7.5 7.5 7.5s7.5-3.358 7.5-7.5v-312.058c0-5.566 4.528-10.095 10.095-10.095h71.581v9.052c0 7.42 6.037 13.458 13.458 13.458h139.22c7.421 0 13.458-6.037 13.458-13.458v-9.052h71.581c5.566 0 10.095 4.528 10.095 10.095v68.38c-17.55-12.935-39.218-20.592-62.644-20.592-58.346 0-105.813 47.467-105.813 105.813 0 22.604 7.028 44.17 20.326 62.369 2.444 3.344 7.137 4.075 10.48 1.631 3.345-2.444 4.074-7.136 1.631-10.48-11.408-15.612-17.438-34.119-17.438-53.519 0-50.074 40.739-90.813 90.813-90.813s90.813 40.739 90.813 90.813-40.738 90.813-90.813 90.813c-17.828 0-35.083-5.161-49.899-14.924-3.46-2.279-8.111-1.323-10.39 2.136s-1.323 8.11 2.136 10.39c17.274 11.382 37.383 17.399 58.153 17.399 20.169 0 39.036-5.675 55.094-15.508l7.55 5.653v136.826c0 5.566-4.528 10.094-10.095 10.094h-309.297c-5.566 0-10.095-4.528-10.095-10.094v-39.327c0-4.142-3.357-7.5-7.5-7.5s-7.5 3.358-7.5 7.5v39.327c0 13.837 11.258 25.094 25.095 25.094h309.298c13.837 0 25.095-11.257 25.095-25.094v-125.596l98.682 73.89c5.872 4.397 12.854 6.708 20.062 6.708 1.607 0 3.227-.115 4.847-.348 8.881-1.276 16.732-5.934 22.11-13.116 5.375-7.181 7.634-16.027 6.358-24.907zm-263.735-305.603h-136.136v-30.02h27.84c5.926 0 10.747-4.821 10.747-10.747v-3.531c0-16.256 13.226-29.481 29.481-29.481s29.481 13.225 29.481 29.481v3.531c0 5.926 4.82 10.747 10.746 10.747h27.84v30.02zm101.888 237.308c9.554-8.004 17.682-17.657 23.933-28.523l17.493 13.099-22.282 29.758zm143.48 84.212c-2.976 3.975-7.321 6.552-12.235 7.258-4.918.708-9.811-.544-13.785-3.52l-86.308-64.625 22.282-29.759 86.308 64.625c8.204 6.145 9.881 17.817 3.738 26.021z"/><path d="m281.844 319.703c38.716 0 70.213-31.498 70.213-70.213s-31.497-70.213-70.213-70.213-70.214 31.498-70.214 70.213c0 38.716 31.498 70.213 70.214 70.213zm0-125.426c30.444 0 55.213 24.769 55.213 55.213 0 30.445-24.769 55.213-55.213 55.213-30.445 0-55.214-24.769-55.214-55.213s24.768-55.213 55.214-55.213z"/></g></g></g></svg>