<svg id="Capa_1" enable-background="new 0 0 512 512" viewBox="0 0 512 512" xmlns="http://www.w3.org/2000/svg"><g><path d="m452 15h-129.54c-9.606-9.45-22.686-15-36.789-15-14.107 0-27.192 5.556-36.795 15h-128.876c-20.678 0-37.5 16.822-37.5 37.5v317c0 4.142 3.358 7.5 7.5 7.5s7.5-3.358 7.5-7.5v-317c0-12.407 10.093-22.5 22.5-22.5h118.243c-.416.881-.818 1.771-1.188 2.682l-5.103 12.318h-111.952c-4.142 0-7.5 3.358-7.5 7.5v339.5h-82.5c-4.142 0-7.5 3.358-7.5 7.5 0 28.949 23.551 52.5 52.5 52.5h7.5v22.5c0 20.678 16.822 37.5 37.5 37.5h332c20.678 0 37.5-16.822 37.5-37.5v-422c0-20.678-16.822-37.5-37.5-37.5zm-201.069 23.379c5.779-14.202 19.416-23.379 34.74-23.379 15.329 0 28.968 9.181 34.764 23.434l19.442 46.936c1.16 2.803 3.896 4.63 6.929 4.63h15.194c9.778 0 18.119 6.27 21.215 15h-194.43c3.095-8.73 11.437-15 21.215-15h14.537c3.033 0 5.768-1.827 6.929-4.63zm-123.431 21.621h98.239l-6.213 15h-9.526c-20.678 0-37.5 16.822-37.5 37.5 0 4.142 3.358 7.5 7.5 7.5h212c4.143 0 7.5-3.358 7.5-7.5 0-20.678-16.822-37.5-37.5-37.5h-10.183l-6.214-15h98.897v339.5c0 20.678-16.822 37.5-37.5 37.5s-37.5-16.822-37.5-37.5c0-4.142-3.357-7.5-7.5-7.5h-234.5zm-89.247 347h316.781c1.677 11.673 7.208 22.118 15.259 30h-295.293c-18.109 0-33.262-12.905-36.747-30zm436.247 67.5c0 12.407-10.094 22.5-22.5 22.5h-332c-12.407 0-22.5-10.093-22.5-22.5v-22.5h309.5c28.948 0 52.5-23.551 52.5-52.5v-347c0-4.142-3.357-7.5-7.5-7.5h-112.61l-5.079-12.261c-.378-.93-.788-1.84-1.214-2.739h118.903c12.406 0 22.5 10.093 22.5 22.5z"/><path d="m285.671 75c12.406 0 22.5-10.093 22.5-22.5s-10.094-22.5-22.5-22.5-22.5 10.093-22.5 22.5 10.094 22.5 22.5 22.5zm0-30c4.136 0 7.5 3.364 7.5 7.5s-3.364 7.5-7.5 7.5-7.5-3.364-7.5-7.5 3.364-7.5 7.5-7.5z"/><path d="m332 323.5h-152c-4.142 0-7.5 3.358-7.5 7.5s3.358 7.5 7.5 7.5h152c4.143 0 7.5-3.358 7.5-7.5s-3.357-7.5-7.5-7.5z"/><path d="m392 353.5c4.143 0 7.5-3.358 7.5-7.5v-30c0-4.142-3.357-7.5-7.5-7.5h-30c-4.143 0-7.5 3.358-7.5 7.5v30c0 4.142 3.357 7.5 7.5 7.5zm-22.5-30h15v15h-15z"/><path d="m332 248.5h-152c-4.142 0-7.5 3.358-7.5 7.5s3.358 7.5 7.5 7.5h152c4.143 0 7.5-3.358 7.5-7.5s-3.357-7.5-7.5-7.5z"/><path d="m362 278.5h30c4.143 0 7.5-3.358 7.5-7.5v-30c0-4.142-3.357-7.5-7.5-7.5h-30c-4.143 0-7.5 3.358-7.5 7.5v30c0 4.142 3.357 7.5 7.5 7.5zm7.5-30h15v15h-15z"/><path d="m332 173.5h-152c-4.142 0-7.5 3.358-7.5 7.5s3.358 7.5 7.5 7.5h152c4.143 0 7.5-3.358 7.5-7.5s-3.357-7.5-7.5-7.5z"/><path d="m362 203.5h30c4.143 0 7.5-3.358 7.5-7.5v-30c0-4.142-3.357-7.5-7.5-7.5h-30c-4.143 0-7.5 3.358-7.5 7.5v30c0 4.142 3.357 7.5 7.5 7.5zm7.5-30h15v15h-15z"/></g></svg>