<?xml version="1.0" encoding="utf-8"?>
<!-- Generator: Adobe Illustrator 16.0.0, SVG Export Plug-In . SVG Version: 6.00 Build 0)  -->
<!DOCTYPE svg PUBLIC "-//W3C//DTD SVG 1.1//EN" "http://www.w3.org/Graphics/SVG/1.1/DTD/svg11.dtd">
<svg version="1.1" id="Layer_1" xmlns="http://www.w3.org/2000/svg" xmlns:xlink="http://www.w3.org/1999/xlink" x="0px" y="0px"
	 width="207.289px" height="109.666px" viewBox="0 0 207.289 109.666" enable-background="new 0 0 207.289 109.666"
	 xml:space="preserve">
<g id="Background" display="none">
	<rect id="XMLID_27_" display="inline" opacity="0.8" fill="#E6E6E6" enable-background="new    " width="500" height="500"/>
</g>
<g id="Objects">
	<g>
		<g id="XMLID_6_">
			<g id="XMLID_10_">
				<path id="XMLID_24_" fill="none" d="M56.555,27.875c0.219,2.044,0.336,4.237,0.336,6.591c0.069-0.791,0.115-1.597,0.115-2.438
					C57.006,30.545,56.855,29.161,56.555,27.875z"/>
				<path id="XMLID_23_" fill="#FFFFFF" d="M30.568,0.001h-2.899H-0.903v0.177c0,10.106,7.698,18.3,17.194,18.3h16.542l0,0
					l11.853-0.153c3.846,0,6.864,1.284,9.048,3.85c1.373,1.613,2.314,3.517,2.822,5.7C53.988,3.86,37.374,0.4,30.568,0.001z"/>
				<path id="XMLID_22_" opacity="0.6" fill="#C1C1C1" enable-background="new    " d="M56.555,27.875
					C53.988,3.86,37.374,0.4,30.568,0.001H29.78c10.915,1.396,17.802,7.563,19.6,19.124c1.697,0.635,3.154,1.642,4.351,3.048
					C55.106,23.791,56.047,25.69,56.555,27.875z"/>
				<path id="XMLID_21_" fill="#6AD1DB" d="M67.379,8.623c-4.816-4.974-11.134-7.792-18.946-8.461
					c-1.215-0.105-2.46-0.16-3.749-0.16H32.832h-2.264C37.374,0.4,53.988,3.86,56.555,27.875c0.301,1.284,0.453,2.668,0.453,4.153
					c0,0.841-0.046,1.647-0.115,2.438c-0.342,3.924-1.518,7.198-3.549,9.804c-2.444,3.133-5.331,4.696-8.657,4.696h-7.189v0.002
					h-4.666v18.389v0.242h11.853c5.511,0,10.606-1.438,15.286-4.313c4.677-2.871,8.473-6.978,11.384-12.315
					c2.911-5.338,4.367-11.652,4.367-18.941C75.722,22.172,72.939,14.374,67.379,8.623z"/>
				<path id="XMLID_20_" opacity="0.8" fill="#6AD1DB" enable-background="new    " d="M44.601,48.965h-7.104v0.002h-4.666v18.389
					v0.242h4.54C37.037,60.183,37.448,50.109,44.601,48.965z"/>
				<path id="XMLID_19_" fill="#FFFFFF" d="M32.828,67.444L32.828,67.444c0,0,0-18.481,11.853-18.481H32.828H13.802v58.083l0,0
					c10.507,0,19.026-9.065,19.026-20.249V67.444z"/>
			</g>
		</g>
	</g>
	<g>
		<g id="XMLID_25_">
			<g id="XMLID_26_">
				<path id="XMLID_41_" fill="none" d="M114.07,8.304c2.239-0.271,4.642-0.425,7.223-0.446c-0.867-0.072-1.751-0.118-2.673-0.11
					C116.993,7.761,115.478,7.948,114.07,8.304z"/>
				<path id="XMLID_39_" fill="#FFFFFF" d="M83.703,56.585l0.04,4.654l0.389,45.827l0.203-0.002
					c11.577-0.099,20.854-12.521,20.726-27.754l-0.228-26.534l0,0l-0.338-19.011c-0.052-6.169,1.379-11.021,4.286-14.545
					c1.83-2.22,3.995-3.746,6.49-4.583C87.803,18.981,84.067,45.667,83.703,56.585z"/>
				<path id="XMLID_38_" opacity="0.6" fill="#C1C1C1" enable-background="new    " d="M114.819,15.213
					c-27.661,4.634-31.132,31.26-31.377,42.146l0.022,1.254c1.268-17.471,8.175-28.611,21.472-31.743
					c0.683-2.725,1.798-5.074,3.385-7.017C110.145,17.622,112.312,16.076,114.819,15.213z"/>
				<path fill="#6AD1DB" d="M154.071,48.944h-0.254l-19.094,0.166l-0.047-5.359l-0.065-8.258c-0.028-3.815-1.682-7.116-4.95-9.897
					c-2.732-2.304-6.144-3.632-10.218-3.982c-0.817-0.078-1.653-0.117-2.527-0.117c-1.54,0.02-2.978,0.205-4.313,0.557
					c-24.907,3.172-28.346,22.284-28.701,30.102l-0.021-2.606l-0.111-13.606c-0.011-1.483,0.036-2.907,0.132-4.303
					c0.62-8.981,3.492-16.262,8.612-21.836C98.432,3.36,106.51,0.1,116.737,0.001c7.571-0.058,14.135,1.553,19.705,4.852
					c5.57,3.29,9.871,7.613,12.896,12.962c3.036,5.349,4.565,11.186,4.621,17.511L154.071,48.944z"/>
				<path id="XMLID_29_" display="none" opacity="0.8" fill="#6AD1DB" enable-background="new    " d="M135.324,36.795l0.069,8.16
					h0.001l0.046,5.356l20.157-0.168l0.265-0.002l-0.043-5.215C147.693,45.383,136.649,45,135.324,36.795z"/>
				<path id="XMLID_28_" display="none" fill="#006CA8" d="M119.321,57.848L119.321,57.848c0,0,0-19.942,13.828-19.942h-13.828
					H97.121v62.677l0,0c12.258,0,22.201-9.782,22.201-21.853V57.848z"/>
			</g>
		</g>
	</g>
	<g>
		<g id="XMLID_30_">
			<g id="XMLID_50_">
				<path fill="#6AD1DB" d="M204.533,38.079c-3.657-0.951-4.373-5.667-2.162-8.109c-0.82-0.356-1.577-0.955-2.174-1.883
					c-0.938-1.463-1.317-3.098-1.177-4.658c-12.292,9.839-14.396,26.925-14.656,35.125l0.039,4.653l0.392,45.828l0.194-0.002
					c11.211-0.094,20.19-12.516,20.062-27.747l-0.228-26.534L204.533,38.079z"/>
				<path id="XMLID_71_" display="none" opacity="0.6" fill="#FF9B2E" enable-background="new    " d="M146.486,9.453
					c-14.859,6.731-13.113,19.791-11.742,24.934l0.188,0.587c-1.714-8.403,0.614-14.766,7.632-18.426
					c0.006-1.391,0.305-2.675,0.925-3.847C144.2,11.351,145.2,10.27,146.486,9.453z"/>
				<path id="XMLID_70_" fill="none" d="M164.642,9.906c2.239-0.271,4.642-0.425,7.222-0.446c-0.866-0.072-1.75-0.118-2.672-0.111
					C167.564,9.362,166.049,9.548,164.642,9.906z"/>
				<path id="XMLID_67_" fill="#FFFFFF" d="M134.274,58.187l0.039,4.655l0.39,45.826l0.203-0.002
					c11.576-0.097,20.854-12.52,20.726-27.752l-0.228-26.537l0,0l-0.337-19.01c-0.052-6.17,1.377-11.021,4.286-14.545
					c1.83-2.22,3.993-3.747,6.49-4.583C138.374,20.582,134.64,47.267,134.274,58.187z"/>
				<path id="XMLID_66_" fill="#DDDDDD" d="M165.391,16.816c-27.662,4.634-31.133,31.259-31.38,42.145l0.024,1.256
					c1.269-17.472,8.175-28.614,21.473-31.744c0.682-2.724,1.798-5.074,3.386-7.017C160.716,19.223,162.882,17.676,165.391,16.816z"
					/>
				<path fill="#6AD1DB" d="M204.643,50.546h-0.254l-19.094,0.168l-0.047-5.359l-0.065-8.259c-0.028-3.816-1.682-7.115-4.95-9.898
					c-2.733-2.303-6.144-3.631-10.219-3.981c-0.817-0.078-1.652-0.118-2.526-0.118c-1.542,0.02-2.978,0.206-4.313,0.556
					c-24.909,3.172-28.346,22.285-28.701,30.102l-0.021-2.605l-0.113-13.604c-0.009-1.485,0.038-2.91,0.134-4.305
					c0.62-8.98,3.492-16.262,8.612-21.836c5.917-6.443,13.995-9.703,24.223-9.8c7.571-0.059,14.135,1.552,19.705,4.851
					c5.569,3.29,9.871,7.613,12.896,12.963c3.035,5.35,4.565,11.186,4.621,17.511L204.643,50.546z"/>
				<path id="XMLID_56_" display="none" opacity="0.8" fill="#6AD1DB" enable-background="new    " d="M185.895,38.396l0.07,8.159
					h0.001l0.045,5.357l20.157-0.167l0.266-0.003l-0.044-5.215C198.265,46.983,187.221,46.602,185.895,38.396z"/>
				<path id="XMLID_51_" display="none" fill="#006CA8" d="M169.892,59.448L169.892,59.448c0,0,0-19.94,13.828-19.94h-13.828h-22.2
					v62.678l0,0c12.259,0,22.2-9.784,22.2-21.854V59.448z"/>
			</g>
		</g>
	</g>
</g>
</svg>
